<?xml version="1.0" standalone="no"?>
<!DOCTYPE svg PUBLIC "-//W3C//DTD SVG 20010904//EN"
 "http://www.w3.org/TR/2001/REC-SVG-20010904/DTD/svg10.dtd">
<svg version="1.0" xmlns="http://www.w3.org/2000/svg"
 width="426.000000pt" height="118.000000pt" viewBox="0 0 426.000000 118.000000"
 preserveAspectRatio="xMidYMid meet">

<g transform="translate(0.000000,118.000000) scale(0.100000,-0.100000)"
fill="#000000" stroke="none">
<path d="M435 1169 c-109 -8 -342 -52 -357 -67 -11 -11 -54 -216 -63 -306 l-7
-65 70 34 c173 84 400 145 634 170 l56 6 -25 62 c-14 34 -38 88 -54 119 l-29
58 -63 -1 c-34 -1 -107 -5 -162 -10z"/>
<path d="M740 1166 c0 -2 16 -38 35 -80 79 -170 135 -375 157 -572 l12 -101
60 24 c33 14 87 38 118 54 l58 29 0 95 c0 113 -23 298 -51 411 l-21 81 -96 22
c-130 29 -272 48 -272 37z"/>
<path d="M1610 1111 c-103 -34 -160 -106 -160 -205 0 -58 14 -93 53 -134 38
-40 75 -60 177 -96 85 -31 110 -49 110 -81 0 -31 -22 -47 -73 -52 -57 -6 -96
10 -110 47 -11 30 -12 30 -89 30 -75 0 -78 -1 -78 -24 0 -35 20 -87 48 -125
76 -102 302 -115 406 -23 50 44 71 157 42 225 -22 53 -85 99 -195 140 -125 48
-160 88 -113 130 44 40 142 9 142 -43 0 -18 7 -20 81 -20 l82 0 -6 45 c-7 67
-52 134 -110 163 -50 26 -160 39 -207 23z"/>
<path d="M3005 1106 c-71 -22 -119 -53 -168 -105 -74 -79 -92 -126 -92 -246 0
-87 3 -107 27 -157 106 -227 398 -286 583 -117 146 135 161 349 34 510 -80
102 -258 155 -384 115z m188 -160 c39 -17 92 -71 106 -109 18 -47 13 -143 -9
-186 -69 -136 -266 -148 -354 -23 -23 32 -31 56 -34 102 -7 99 31 170 113 213
37 20 135 22 178 3z"/>
<path d="M3789 1102 c-145 -48 -234 -164 -246 -320 -8 -95 16 -183 68 -256
106 -149 329 -189 455 -83 18 15 35 27 38 27 3 0 6 -16 6 -35 l0 -35 75 0 75
0 0 190 0 190 -175 0 -175 0 0 -70 0 -69 92 -3 93 -3 -38 -41 c-43 -48 -103
-69 -171 -62 -105 12 -173 85 -183 196 -7 72 8 121 50 169 41 46 82 63 154 63
71 0 132 -26 164 -69 22 -30 25 -31 101 -31 89 0 92 4 58 76 -27 55 -98 120
-167 151 -75 35 -195 41 -274 15z"/>
<path d="M2037 1104 c-4 -4 -7 -164 -7 -356 l0 -348 85 0 85 0 -2 353 -3 352
-75 3 c-42 1 -79 0 -83 -4z"/>
<path d="M2320 755 l0 -355 205 0 205 0 0 75 0 75 -125 0 -125 0 0 280 0 280
-80 0 -80 0 0 -355z"/>
<path d="M110 707 l-105 -52 3 -125 c3 -126 19 -256 48 -383 13 -56 20 -70 40
-77 37 -14 210 -48 286 -55 l68 -7 -39 83 c-76 162 -140 387 -156 544 -10 101
-15 125 -28 125 -7 0 -59 -24 -117 -53z"/>
<path d="M1095 410 c-157 -76 -415 -145 -618 -166 -68 -7 -68 2 1 -148 l46
-98 136 7 c140 7 243 21 372 50 86 19 82 13 112 170 12 61 36 229 32 224 -1 0
-37 -18 -81 -39z"/>
<path d="M1700 168 c0 -81 2 -96 15 -92 10 4 15 27 17 82 3 69 5 77 23 77 18
0 20 -8 23 -77 2 -60 6 -78 17 -78 12 0 15 16 15 79 0 74 1 79 20 74 18 -5 20
-14 20 -82 0 -62 3 -78 15 -78 12 0 15 18 15 96 l0 96 -90 0 -90 0 0 -97z"/>
<path d="M1456 214 c-26 -26 -15 -50 36 -73 18 -9 33 -21 33 -26 0 -17 -45
-18 -51 -1 -8 20 -34 21 -34 2 0 -18 38 -46 61 -46 9 0 27 8 40 19 21 16 22
22 11 45 -6 14 -16 26 -21 26 -5 0 -22 5 -37 10 -25 10 -26 12 -11 27 15 15
18 15 35 0 20 -18 42 -23 42 -9 0 17 -37 42 -63 42 -14 0 -33 -7 -41 -16z"/>
<path d="M1580 150 l0 -81 48 3 c53 3 64 21 15 26 -42 4 -47 39 -8 44 14 2 26
8 26 13 0 6 -12 11 -26 13 -37 5 -31 30 8 34 49 5 38 23 -15 26 l-48 3 0 -81z"/>
<path d="M1910 150 l0 -81 47 3 c56 4 73 28 19 28 -29 0 -36 4 -36 20 0 16 7
20 31 20 38 0 35 24 -4 28 -38 5 -34 30 6 34 49 5 38 23 -15 26 l-48 3 0 -81z"/>
<path d="M2030 150 c0 -61 3 -81 13 -78 6 3 14 23 17 46 l5 42 29 -45 c15 -25
33 -44 40 -42 16 5 15 149 -1 154 -8 3 -13 -12 -15 -44 l-3 -48 -30 44 c-47
69 -55 65 -55 -29z"/>
<path d="M2250 149 c0 -60 3 -80 13 -77 8 3 13 31 15 81 2 64 0 77 -13 77 -12
0 -15 -15 -15 -81z"/>
<path d="M2300 150 c0 -61 3 -81 13 -78 6 3 13 24 15 48 l3 44 30 -48 c16 -26
35 -46 42 -43 16 5 17 149 0 154 -8 3 -13 -12 -15 -44 l-3 -48 -30 44 c-47 69
-55 65 -55 -29z"/>
<path d="M2440 149 l0 -82 40 6 c58 7 70 21 70 78 0 56 -23 79 -77 79 l-33 0
0 -81z m75 1 c0 -42 -2 -45 -27 -48 -27 -3 -28 -2 -28 48 0 50 1 51 28 48 25
-3 27 -6 27 -48z"/>
<path d="M2604 222 c-37 -24 -43 -87 -13 -126 42 -53 109 -20 109 54 0 60 -54
101 -96 72z m64 -70 c2 -32 -1 -44 -14 -49 -36 -14 -62 24 -50 73 5 20 12 25
34 22 24 -3 27 -8 30 -46z"/>
<path d="M2720 149 c0 -60 3 -80 13 -77 6 3 14 24 17 49 l5 44 28 -48 c16 -27
34 -46 40 -44 8 2 13 33 15 80 2 63 0 77 -12 77 -11 0 -16 -13 -18 -47 l-3
-48 -30 47 c-44 70 -55 63 -55 -33z"/>
<path d="M2860 150 l0 -81 48 3 c53 3 64 21 15 26 -25 2 -33 8 -33 23 0 15 7
19 31 19 38 0 35 24 -4 28 -38 5 -34 30 6 34 49 5 38 23 -15 26 l-48 3 0 -81z"/>
<path d="M2996 214 c-28 -28 -20 -54 24 -72 24 -10 39 -23 38 -31 -5 -24 -25
-23 -47 0 -19 21 -21 21 -27 4 -9 -22 19 -45 56 -45 32 0 50 17 50 48 0 18 -9
27 -40 39 -41 17 -48 35 -15 42 10 1 22 -4 27 -13 12 -22 28 -20 28 4 0 37
-65 54 -94 24z"/>
<path d="M3114 216 c-10 -26 1 -139 14 -144 9 -3 12 17 12 77 0 49 -4 81 -10
81 -6 0 -13 -6 -16 -14z"/>
<path d="M3215 221 c-6 -12 -55 -139 -55 -146 0 -15 30 -2 35 15 8 27 42 25
65 -2 31 -39 33 -13 4 66 -25 73 -36 87 -49 67z m19 -66 c3 -9 0 -15 -9 -15
-9 0 -12 6 -9 15 4 8 7 15 9 15 2 0 5 -7 9 -15z"/>
<path d="M3384 216 c-3 -7 -4 -42 -2 -77 l3 -64 48 -3 c36 -2 47 0 47 12 0 9
-12 16 -32 18 -33 3 -33 3 -36 66 -3 58 -16 80 -28 48z"/>
<path d="M3510 210 c-44 -44 -14 -140 44 -140 49 0 81 73 55 123 -23 43 -66
50 -99 17z m76 -34 c8 -33 2 -57 -17 -69 -29 -18 -49 -1 -49 41 0 45 5 52 36
52 17 0 25 -7 30 -24z"/>
<path d="M3657 212 c-23 -26 -23 -104 1 -125 10 -9 33 -15 55 -14 37 1 37 1
37 44 0 39 -2 43 -25 43 -16 0 -25 -6 -25 -15 0 -8 7 -15 16 -15 14 0 14 -3 4
-15 -31 -37 -74 12 -52 60 11 24 52 36 52 15 0 -5 7 -10 15 -10 22 0 19 27 -4
40 -29 15 -56 12 -74 -8z"/>
<path d="M3774 216 c-10 -26 1 -139 14 -144 9 -3 12 17 12 77 0 49 -4 81 -10
81 -6 0 -13 -6 -16 -14z"/>
<path d="M3836 208 c-19 -27 -9 -46 35 -67 19 -9 34 -21 34 -26 0 -17 -45 -18
-51 -1 -8 20 -34 21 -34 2 0 -19 39 -46 66 -46 29 0 57 34 49 59 -3 11 -21 25
-40 31 -33 11 -44 28 -29 43 4 4 20 -1 35 -10 35 -21 49 -10 24 17 -24 27 -70
26 -89 -2z"/>
<path d="M3950 215 c0 -8 9 -15 20 -15 16 0 19 -8 22 -62 2 -38 8 -63 16 -66
9 -3 12 14 12 62 0 64 1 66 26 66 16 0 24 5 22 13 -3 7 -27 13 -61 15 -46 2
-57 0 -57 -13z"/>
<path d="M4090 150 c0 -61 3 -81 13 -78 8 3 12 28 12 78 0 50 -4 75 -12 78
-10 3 -13 -17 -13 -78z"/>
<path d="M4140 150 c0 -47 4 -80 10 -80 6 0 10 11 10 24 0 13 6 28 13 34 10 9
17 3 32 -23 10 -19 24 -35 32 -35 18 0 17 8 -9 57 l-22 42 22 24 c26 27 28 37
8 37 -8 0 -24 -13 -36 -30 -12 -16 -26 -30 -31 -30 -5 0 -9 14 -9 30 0 17 -4
30 -10 30 -6 0 -10 -33 -10 -80z"/>
</g>
</svg>
